<svg width="36" height="36" viewBox="0 0 36 36" fill="none" xmlns="http://www.w3.org/2000/svg">
<g clip-path="url(#clip0_39_57)">
<path d="M35.1556 12.375H30.946L29.776 9.45C28.5736 6.44273 25.7042 4.5 22.4649 4.5H13.5352C10.2966 4.5 7.42642 6.44273 6.22338 9.45L5.05338 12.375H0.844472C0.295332 12.375 -0.107559 12.8911 0.0260346 13.4234L0.44791 15.1109C0.541425 15.4863 0.878925 15.75 1.26635 15.75H2.67752C1.73322 16.5748 1.12502 17.7736 1.12502 19.125V22.5C1.12502 23.6334 1.55814 24.6565 2.25002 25.4482V29.25C2.25002 30.4924 3.2576 31.5 4.50002 31.5H6.75002C7.99244 31.5 9.00002 30.4924 9.00002 29.25V27H27V29.25C27 30.4924 28.0076 31.5 29.25 31.5H31.5C32.7424 31.5 33.75 30.4924 33.75 29.25V25.4482C34.4419 24.6572 34.875 23.6341 34.875 22.5V19.125C34.875 17.7736 34.2668 16.5748 33.3232 15.75H34.7344C35.1218 15.75 35.4593 15.4863 35.5528 15.1109L35.9747 13.4234C36.1076 12.8911 35.7047 12.375 35.1556 12.375ZM10.4013 11.1213C10.9139 9.84023 12.1549 9 13.5352 9H22.4649C23.8451 9 25.0861 9.84023 25.5987 11.1213L27 14.625H9.00002L10.4013 11.1213ZM6.75002 22.4859C5.40002 22.4859 4.50002 21.5887 4.50002 20.243C4.50002 18.8972 5.40002 18 6.75002 18C8.10002 18 10.125 20.0187 10.125 21.3645C10.125 22.7102 8.10002 22.4859 6.75002 22.4859ZM29.25 22.4859C27.9 22.4859 25.875 22.7102 25.875 21.3645C25.875 20.0187 27.9 18 29.25 18C30.6 18 31.5 18.8972 31.5 20.243C31.5 21.5887 30.6 22.4859 29.25 22.4859Z" fill="#33AD5F"/>
</g>
<defs>
<clipPath id="clip0_39_57">
<rect width="36" height="36" fill="white"/>
</clipPath>
</defs>
</svg>
