<svg width="347" height="205" viewBox="0 0 347 205" fill="none" xmlns="http://www.w3.org/2000/svg">
<rect x="0.0391846" y="1.69385" width="346" height="202" rx="8" fill="#3F3F3F"/>
<path d="M243.117 145.705C243.117 220 206.483 202.011 96.5782 202.011C-3.92192 202.011 1.57815 229.511 1.57811 109.011C1.57807 -14.4889 -18 0.70473 94.1174 0.704746C204.022 0.704762 243.117 -7.99992 243.117 145.705Z" fill="#2F2C2C"/>
<path d="M100.944 49.544C100.512 49.544 100.2 49.392 100.008 49.088C99.832 48.784 99.744 48.416 99.744 47.984C99.744 47.6 99.832 47.256 100.008 46.952C100.2 46.648 100.512 46.496 100.944 46.496C102.944 46.464 104.984 46.44 107.064 46.424C109.144 46.392 111.176 46.368 113.16 46.352C113.576 46.352 113.872 46.504 114.048 46.808C114.24 47.112 114.336 47.464 114.336 47.864C114.336 48.536 114.16 48.976 113.808 49.184C113.456 49.392 112.992 49.488 112.416 49.472C112.032 49.456 111.488 49.448 110.784 49.448C110.08 49.448 109.288 49.456 108.408 49.472C107.544 49.472 106.656 49.48 105.744 49.496C104.832 49.496 103.952 49.504 103.104 49.52C102.272 49.536 101.552 49.544 100.944 49.544ZM105.144 48.176C105.192 47.728 105.384 47.416 105.72 47.24C106.072 47.064 106.448 46.976 106.848 46.976C107.264 46.976 107.64 47.064 107.976 47.24C108.312 47.416 108.456 47.728 108.408 48.176C108.264 50.048 108.144 51.992 108.048 54.008C107.968 56.008 107.928 58.032 107.928 60.08C107.928 60.768 107.928 61.448 107.928 62.12C107.944 62.776 107.96 63.392 107.976 63.968C108.008 64.368 107.856 64.672 107.52 64.88C107.184 65.072 106.8 65.184 106.368 65.216C105.92 65.232 105.536 65.128 105.216 64.904C104.896 64.664 104.728 64.352 104.712 63.968C104.696 63.392 104.68 62.776 104.664 62.12C104.664 61.448 104.664 60.768 104.664 60.08C104.664 58.032 104.704 56.008 104.784 54.008C104.88 51.992 105 50.048 105.144 48.176ZM124.645 57.824C124.645 58.8 124.501 59.728 124.213 60.608C123.925 61.488 123.501 62.264 122.941 62.936C122.397 63.592 121.725 64.112 120.925 64.496C120.125 64.88 119.221 65.072 118.213 65.072C117.093 65.072 116.101 64.816 115.237 64.304C114.373 63.792 113.693 63.088 113.197 62.192C112.701 61.296 112.453 60.272 112.453 59.12C112.453 58.096 112.605 57.136 112.909 56.24C113.229 55.328 113.677 54.536 114.253 53.864C114.829 53.192 115.517 52.664 116.317 52.28C117.133 51.896 118.037 51.704 119.029 51.704C120.133 51.704 121.101 51.968 121.933 52.496C122.781 53.008 123.445 53.72 123.925 54.632C124.405 55.544 124.645 56.608 124.645 57.824ZM115.861 58.808C115.861 59.48 115.949 60.088 116.125 60.632C116.301 61.16 116.581 61.584 116.965 61.904C117.349 62.208 117.829 62.36 118.405 62.36C118.933 62.36 119.413 62.168 119.845 61.784C120.293 61.384 120.645 60.84 120.901 60.152C121.157 59.464 121.285 58.664 121.285 57.752C121.285 57.112 121.173 56.544 120.949 56.048C120.725 55.536 120.421 55.136 120.037 54.848C119.653 54.56 119.205 54.416 118.693 54.416C118.181 54.416 117.709 54.608 117.277 54.992C116.845 55.376 116.501 55.904 116.245 56.576C115.989 57.232 115.861 57.976 115.861 58.808ZM127.212 54.824C126.86 54.84 126.588 54.712 126.396 54.44C126.22 54.152 126.132 53.824 126.132 53.456C126.132 53.056 126.236 52.76 126.444 52.568C126.668 52.376 126.924 52.272 127.212 52.256L134.124 51.848C134.572 51.816 134.884 51.936 135.06 52.208C135.236 52.464 135.324 52.752 135.324 53.072C135.324 53.424 135.236 53.728 135.06 53.984C134.9 54.224 134.636 54.36 134.268 54.392L127.212 54.824ZM128.508 49.88C128.556 49.368 128.74 49.016 129.06 48.824C129.396 48.616 129.772 48.512 130.188 48.512C130.652 48.512 131.052 48.616 131.388 48.824C131.724 49.016 131.868 49.368 131.82 49.88C131.804 50.072 131.764 50.384 131.7 50.816C131.652 51.232 131.596 51.68 131.532 52.16C131.468 52.624 131.412 53.048 131.364 53.432C131.284 54.072 131.196 54.76 131.1 55.496C131.004 56.232 130.924 56.944 130.86 57.632C130.812 58.32 130.788 58.904 130.788 59.384C130.788 59.992 130.836 60.512 130.932 60.944C131.028 61.36 131.156 61.68 131.316 61.904C131.492 62.128 131.692 62.24 131.916 62.24C132.22 62.24 132.452 62.144 132.612 61.952C132.788 61.76 132.908 61.616 132.972 61.52C133.132 61.264 133.3 61.08 133.476 60.968C133.668 60.84 133.868 60.776 134.076 60.776C134.508 60.776 134.852 60.904 135.108 61.16C135.364 61.416 135.492 61.736 135.492 62.12C135.492 62.376 135.436 62.632 135.324 62.888C135.228 63.144 135.076 63.376 134.868 63.584C134.5 64.08 133.996 64.488 133.356 64.808C132.732 65.128 132.076 65.288 131.388 65.288C130.588 65.288 129.932 65.104 129.42 64.736C128.908 64.352 128.508 63.864 128.22 63.272C127.932 62.664 127.724 62.016 127.596 61.328C127.484 60.624 127.428 59.952 127.428 59.312C127.428 58.352 127.492 57.376 127.62 56.384C127.748 55.392 127.884 54.432 128.028 53.504C128.076 53.216 128.124 52.896 128.172 52.544C128.22 52.176 128.26 51.816 128.292 51.464C128.34 51.096 128.38 50.768 128.412 50.48C128.46 50.192 128.492 49.992 128.508 49.88ZM137.132 59.648C137.132 58.704 137.268 57.776 137.54 56.864C137.812 55.936 138.196 55.096 138.692 54.344C139.204 53.576 139.828 52.968 140.564 52.52C141.3 52.056 142.14 51.824 143.084 51.824C143.452 51.824 143.876 51.904 144.356 52.064C144.836 52.208 145.284 52.464 145.7 52.832C145.78 52.432 145.956 52.16 146.228 52.016C146.5 51.856 146.804 51.776 147.14 51.776C147.54 51.776 147.908 51.904 148.244 52.16C148.596 52.416 148.764 52.824 148.748 53.384C148.748 53.976 148.708 54.552 148.628 55.112C148.564 55.672 148.492 56.296 148.412 56.984C148.348 57.656 148.316 58.48 148.316 59.456C148.316 60.224 148.348 60.888 148.412 61.448C148.476 61.992 148.612 62.424 148.82 62.744C148.964 62.648 149.092 62.56 149.204 62.48C149.316 62.4 149.42 62.312 149.516 62.216C149.628 62.104 149.732 61.992 149.828 61.88C149.94 61.768 150.052 61.688 150.164 61.64C150.276 61.592 150.412 61.568 150.572 61.568C150.828 61.568 151.076 61.68 151.316 61.904C151.556 62.112 151.676 62.376 151.676 62.696C151.676 62.872 151.636 63.048 151.556 63.224C151.476 63.4 151.316 63.592 151.076 63.8C150.596 64.248 150.116 64.6 149.636 64.856C149.172 65.112 148.724 65.24 148.292 65.24C147.908 65.24 147.548 65.128 147.212 64.904C146.876 64.68 146.588 64.384 146.348 64.016C146.124 63.632 145.964 63.208 145.868 62.744C145.596 63.192 145.252 63.6 144.836 63.968C144.436 64.336 143.98 64.632 143.468 64.856C142.972 65.08 142.444 65.192 141.884 65.192C140.876 65.192 140.012 64.928 139.292 64.4C138.588 63.856 138.052 63.168 137.684 62.336C137.316 61.488 137.132 60.592 137.132 59.648ZM140.588 59.432C140.572 60.328 140.724 61.056 141.044 61.616C141.38 62.16 141.828 62.432 142.388 62.432C142.868 62.432 143.268 62.28 143.588 61.976C143.908 61.672 144.172 61.264 144.38 60.752C144.588 60.224 144.756 59.648 144.884 59.024C145.012 58.4 145.108 57.76 145.172 57.104C145.236 56.448 145.292 55.824 145.34 55.232C145.132 55.056 144.916 54.92 144.692 54.824C144.468 54.712 144.244 54.632 144.02 54.584C143.796 54.52 143.572 54.488 143.348 54.488C142.836 54.488 142.372 54.696 141.956 55.112C141.54 55.512 141.204 56.08 140.948 56.816C140.708 57.552 140.588 58.424 140.588 59.432ZM153.696 59.072C153.696 57.104 153.72 55.136 153.768 53.168C153.816 51.2 153.968 49.24 154.224 47.288C154.32 46.536 154.488 46.016 154.728 45.728C154.968 45.44 155.4 45.296 156.024 45.296C156.44 45.296 156.784 45.424 157.056 45.68C157.344 45.92 157.456 46.296 157.392 46.808C157.232 48.232 157.104 49.504 157.008 50.624C156.928 51.744 156.872 52.768 156.84 53.696C156.808 54.608 156.792 55.48 156.792 56.312C156.792 57.144 156.792 57.984 156.792 58.832C156.792 59.808 156.808 60.776 156.84 61.736C156.888 62.68 156.944 63.552 157.008 64.352C157.024 64.672 156.952 64.928 156.792 65.12C156.648 65.328 156.456 65.472 156.216 65.552C155.976 65.648 155.728 65.696 155.472 65.696C155.008 65.696 154.656 65.6 154.416 65.408C154.176 65.232 154.016 64.928 153.936 64.496C153.856 64.176 153.8 63.744 153.768 63.2C153.736 62.656 153.712 62.096 153.696 61.52C153.696 60.944 153.696 60.432 153.696 59.984C153.696 59.52 153.696 59.216 153.696 59.072ZM168.56 64.016C168.544 63.744 168.536 63.44 168.536 63.104C168.536 62.768 168.536 62.4 168.536 62C168.536 59.584 168.64 57.2 168.848 54.848C169.056 52.496 169.192 50.224 169.256 48.032C169.256 47.632 169.352 47.328 169.544 47.12C169.736 46.912 169.976 46.768 170.264 46.688C170.552 46.608 170.832 46.56 171.104 46.544C171.616 46.496 172.128 46.456 172.64 46.424C173.168 46.376 173.688 46.352 174.2 46.352C174.728 46.336 175.248 46.336 175.76 46.352C177.168 46.352 178.296 46.568 179.144 47C180.008 47.416 180.64 47.96 181.04 48.632C181.44 49.304 181.64 50.024 181.64 50.792C181.64 51.384 181.512 52 181.256 52.64C181.016 53.264 180.616 53.832 180.056 54.344C179.512 54.84 178.808 55.208 177.944 55.448C178.84 55.72 179.544 56.088 180.056 56.552C180.584 57.016 180.96 57.536 181.184 58.112C181.408 58.688 181.52 59.296 181.52 59.936C181.52 61.104 181.184 62.088 180.512 62.888C179.84 63.672 178.92 64.264 177.752 64.664C176.584 65.064 175.264 65.264 173.792 65.264C173.152 65.264 172.472 65.248 171.752 65.216C171.032 65.2 170.472 65.184 170.072 65.168C169.848 65.152 169.616 65.112 169.376 65.048C169.152 65 168.96 64.896 168.8 64.736C168.64 64.576 168.56 64.336 168.56 64.016ZM173.864 62.456C174.344 62.456 174.824 62.424 175.304 62.36C175.8 62.28 176.256 62.136 176.672 61.928C177.104 61.72 177.448 61.432 177.704 61.064C177.96 60.696 178.088 60.216 178.088 59.624C178.088 59.032 177.896 58.544 177.512 58.16C177.144 57.776 176.656 57.488 176.048 57.296C175.44 57.104 174.784 56.984 174.08 56.936C173.376 56.888 172.696 56.896 172.04 56.96C172.008 57.44 171.976 57.944 171.944 58.472C171.912 59 171.888 59.576 171.872 60.2C171.872 60.824 171.872 61.568 171.872 62.432C172.144 62.448 172.424 62.456 172.712 62.456C173.016 62.456 173.4 62.456 173.864 62.456ZM172.208 54.032C172.848 54.048 173.52 54.04 174.224 54.008C174.928 53.96 175.584 53.84 176.192 53.648C176.816 53.456 177.32 53.16 177.704 52.76C178.088 52.36 178.28 51.792 178.28 51.056C178.28 50.4 178.056 49.888 177.608 49.52C177.16 49.152 176.4 48.968 175.328 48.968C174.784 48.968 174.288 48.992 173.84 49.04C173.392 49.072 172.944 49.112 172.496 49.16C172.464 49.704 172.432 50.248 172.4 50.792C172.368 51.32 172.336 51.856 172.304 52.4C172.272 52.944 172.24 53.488 172.208 54.032ZM183.843 59.648C183.843 58.704 183.979 57.776 184.251 56.864C184.523 55.936 184.907 55.096 185.403 54.344C185.915 53.576 186.539 52.968 187.275 52.52C188.011 52.056 188.851 51.824 189.795 51.824C190.163 51.824 190.587 51.904 191.067 52.064C191.547 52.208 191.995 52.464 192.411 52.832C192.491 52.432 192.667 52.16 192.939 52.016C193.211 51.856 193.515 51.776 193.851 51.776C194.251 51.776 194.619 51.904 194.955 52.16C195.307 52.416 195.475 52.824 195.459 53.384C195.459 53.976 195.419 54.552 195.339 55.112C195.275 55.672 195.203 56.296 195.123 56.984C195.059 57.656 195.027 58.48 195.027 59.456C195.027 60.224 195.059 60.888 195.123 61.448C195.187 61.992 195.323 62.424 195.531 62.744C195.675 62.648 195.803 62.56 195.915 62.48C196.027 62.4 196.131 62.312 196.227 62.216C196.339 62.104 196.443 61.992 196.539 61.88C196.651 61.768 196.763 61.688 196.875 61.64C196.987 61.592 197.123 61.568 197.283 61.568C197.539 61.568 197.787 61.68 198.027 61.904C198.267 62.112 198.387 62.376 198.387 62.696C198.387 62.872 198.347 63.048 198.267 63.224C198.187 63.4 198.027 63.592 197.787 63.8C197.307 64.248 196.827 64.6 196.347 64.856C195.883 65.112 195.435 65.24 195.003 65.24C194.619 65.24 194.259 65.128 193.923 64.904C193.587 64.68 193.299 64.384 193.059 64.016C192.835 63.632 192.675 63.208 192.579 62.744C192.307 63.192 191.963 63.6 191.547 63.968C191.147 64.336 190.691 64.632 190.179 64.856C189.683 65.08 189.155 65.192 188.595 65.192C187.587 65.192 186.723 64.928 186.003 64.4C185.299 63.856 184.763 63.168 184.395 62.336C184.027 61.488 183.843 60.592 183.843 59.648ZM187.299 59.432C187.283 60.328 187.435 61.056 187.755 61.616C188.091 62.16 188.539 62.432 189.099 62.432C189.579 62.432 189.979 62.28 190.299 61.976C190.619 61.672 190.883 61.264 191.091 60.752C191.299 60.224 191.467 59.648 191.595 59.024C191.723 58.4 191.819 57.76 191.883 57.104C191.947 56.448 192.003 55.824 192.051 55.232C191.843 55.056 191.627 54.92 191.403 54.824C191.179 54.712 190.955 54.632 190.731 54.584C190.507 54.52 190.283 54.488 190.059 54.488C189.547 54.488 189.083 54.696 188.667 55.112C188.251 55.512 187.915 56.08 187.659 56.816C187.419 57.552 187.299 58.424 187.299 59.432ZM200.911 46.52C200.943 46.04 201.095 45.704 201.367 45.512C201.655 45.304 202.047 45.2 202.543 45.2C202.847 45.2 203.127 45.248 203.383 45.344C203.639 45.44 203.839 45.584 203.983 45.776C204.143 45.968 204.215 46.216 204.199 46.52C204.119 47.64 204.063 48.8 204.031 50C204.015 51.184 204.007 52.352 204.007 53.504C204.023 54.656 204.031 55.744 204.031 56.768L203.935 59.48C203.935 60.568 203.911 61.48 203.863 62.216C203.815 62.952 203.743 63.48 203.647 63.8C203.503 64.328 203.311 64.696 203.071 64.904C202.847 65.096 202.551 65.192 202.183 65.192C201.575 65.192 201.103 65.056 200.767 64.784C200.447 64.512 200.327 64.104 200.407 63.56C200.455 63.288 200.495 62.88 200.527 62.336C200.575 61.792 200.615 61.192 200.647 60.536C200.679 59.864 200.703 59.216 200.719 58.592C200.751 57.968 200.767 57.44 200.767 57.008C200.767 55.328 200.767 53.864 200.767 52.616C200.783 51.352 200.799 50.232 200.815 49.256C200.847 48.264 200.879 47.352 200.911 46.52ZM206.25 59.576C206.25 58.616 206.41 57.696 206.73 56.816C207.05 55.92 207.498 55.128 208.074 54.44C208.666 53.736 209.354 53.184 210.138 52.784C210.922 52.368 211.77 52.16 212.682 52.16C213.178 52.16 213.634 52.232 214.05 52.376C214.466 52.504 214.794 52.632 215.034 52.76C215.098 52.376 215.266 52.096 215.538 51.92C215.81 51.744 216.162 51.656 216.594 51.656C216.978 51.64 217.282 51.712 217.506 51.872C217.73 52.016 217.89 52.2 217.986 52.424C218.098 52.648 218.154 52.872 218.154 53.096C218.154 53.256 218.13 53.584 218.082 54.08C218.034 54.56 217.97 55.176 217.89 55.928C217.81 56.664 217.714 57.52 217.602 58.496C217.554 58.896 217.522 59.272 217.506 59.624C217.49 59.96 217.482 60.208 217.482 60.368C217.498 60.896 217.53 61.344 217.578 61.712C217.642 62.064 217.73 62.336 217.842 62.528C217.97 62.72 218.122 62.816 218.298 62.816C218.506 62.816 218.674 62.76 218.802 62.648C218.93 62.536 219.058 62.432 219.186 62.336C219.314 62.224 219.49 62.168 219.714 62.168C220.018 62.168 220.242 62.256 220.386 62.432C220.546 62.608 220.626 62.872 220.626 63.224C220.626 63.544 220.57 63.824 220.458 64.064C220.362 64.288 220.218 64.488 220.026 64.664C219.754 64.92 219.434 65.112 219.066 65.24C218.698 65.368 218.298 65.432 217.866 65.432C217.05 65.432 216.41 65.216 215.946 64.784C215.482 64.336 215.122 63.784 214.866 63.128C214.562 63.624 214.21 64.048 213.81 64.4C213.41 64.736 212.978 64.992 212.514 65.168C212.066 65.344 211.61 65.432 211.146 65.432C210.138 65.432 209.266 65.152 208.53 64.592C207.81 64.032 207.25 63.304 206.85 62.408C206.45 61.512 206.25 60.568 206.25 59.576ZM214.314 59.048L214.722 55.376C214.466 55.184 214.202 55.04 213.93 54.944C213.658 54.832 213.37 54.776 213.066 54.776C212.57 54.776 212.114 54.912 211.698 55.184C211.282 55.44 210.922 55.792 210.618 56.24C210.314 56.688 210.074 57.192 209.898 57.752C209.738 58.296 209.658 58.84 209.658 59.384C209.658 59.816 209.706 60.232 209.802 60.632C209.898 61.032 210.034 61.392 210.21 61.712C210.386 62.016 210.602 62.256 210.858 62.432C211.114 62.592 211.41 62.672 211.746 62.672C212.13 62.672 212.49 62.504 212.826 62.168C213.178 61.832 213.482 61.384 213.738 60.824C213.994 60.264 214.186 59.672 214.314 59.048ZM222.773 56.888C222.773 56.056 222.741 55.376 222.677 54.848C222.613 54.304 222.541 53.872 222.461 53.552C222.397 53.232 222.365 52.976 222.365 52.784C222.365 52.448 222.517 52.168 222.821 51.944C223.125 51.704 223.549 51.584 224.093 51.584C224.461 51.584 224.805 51.696 225.125 51.92C225.445 52.144 225.661 52.496 225.773 52.976C225.805 53.136 225.829 53.376 225.845 53.696C225.877 54 225.893 54.408 225.893 54.92C226.245 54.248 226.669 53.688 227.165 53.24C227.661 52.792 228.181 52.456 228.725 52.232C229.285 52.008 229.829 51.896 230.357 51.896C231.813 51.896 232.853 52.392 233.477 53.384C234.117 54.36 234.437 55.784 234.437 57.656C234.437 58.296 234.389 59.008 234.293 59.792C234.213 60.56 234.109 61.336 233.981 62.12C233.869 62.888 233.741 63.6 233.597 64.256C233.517 64.592 233.349 64.84 233.093 65C232.837 65.144 232.565 65.216 232.277 65.216C231.429 65.216 230.877 65.072 230.621 64.784C230.365 64.48 230.293 64.088 230.405 63.608C230.613 62.68 230.773 61.712 230.885 60.704C231.013 59.68 231.077 58.648 231.077 57.608C231.077 56.664 230.973 55.968 230.765 55.52C230.557 55.056 230.165 54.824 229.589 54.824C229.125 54.824 228.701 54.944 228.317 55.184C227.949 55.408 227.621 55.744 227.333 56.192C227.045 56.624 226.797 57.152 226.589 57.776C226.381 58.4 226.213 59.104 226.085 59.888C226.037 60.208 225.997 60.568 225.965 60.968C225.949 61.368 225.941 61.808 225.941 62.288C225.941 62.768 225.941 63.312 225.941 63.92C225.941 64.32 225.805 64.624 225.533 64.832C225.277 65.04 224.869 65.144 224.309 65.144C224.037 65.144 223.773 65.096 223.517 65C223.261 64.904 223.053 64.76 222.893 64.568C222.733 64.36 222.653 64.096 222.653 63.776C222.653 63.456 222.661 63.024 222.677 62.48C222.693 61.936 222.701 61.336 222.701 60.68C222.717 60.024 222.733 59.368 222.749 58.712C222.765 58.056 222.773 57.448 222.773 56.888ZM242.38 65.096C241.42 65.096 240.588 64.904 239.884 64.52C239.196 64.136 238.62 63.624 238.156 62.984C237.692 62.344 237.34 61.64 237.1 60.872C236.876 60.088 236.764 59.304 236.764 58.52C236.764 57.624 236.916 56.776 237.22 55.976C237.54 55.16 237.98 54.44 238.54 53.816C239.116 53.176 239.796 52.68 240.58 52.328C241.364 51.96 242.228 51.776 243.172 51.776C243.78 51.776 244.364 51.856 244.924 52.016C245.484 52.176 246.004 52.44 246.484 52.808C246.98 53.16 247.396 53.64 247.732 54.248C247.796 54.36 247.844 54.472 247.876 54.584C247.908 54.696 247.924 54.808 247.924 54.92C247.924 55.176 247.836 55.4 247.66 55.592C247.5 55.784 247.3 55.936 247.06 56.048C246.836 56.16 246.62 56.216 246.412 56.216C246.204 56.216 246.02 56.16 245.86 56.048C245.716 55.936 245.564 55.768 245.404 55.544C245.132 55.128 244.804 54.84 244.42 54.68C244.036 54.52 243.652 54.44 243.268 54.44C242.884 54.44 242.508 54.536 242.14 54.728C241.772 54.904 241.436 55.176 241.132 55.544C240.844 55.896 240.604 56.328 240.412 56.84C240.236 57.352 240.148 57.936 240.148 58.592C240.148 59.12 240.236 59.68 240.412 60.272C240.588 60.848 240.86 61.336 241.228 61.736C241.612 62.136 242.084 62.336 242.644 62.336C243.284 62.336 243.852 62.152 244.348 61.784C244.86 61.416 245.324 60.992 245.74 60.512C245.868 60.384 245.988 60.288 246.1 60.224C246.212 60.16 246.348 60.128 246.508 60.128C246.732 60.128 246.956 60.2 247.18 60.344C247.404 60.488 247.596 60.672 247.756 60.896C247.916 61.104 247.996 61.328 247.996 61.568C247.996 61.68 247.98 61.808 247.948 61.952C247.916 62.096 247.828 62.248 247.684 62.408C246.98 63.224 246.156 63.88 245.212 64.376C244.268 64.856 243.324 65.096 242.38 65.096ZM255.677 65.048C254.653 65.048 253.765 64.872 253.013 64.52C252.261 64.152 251.637 63.672 251.141 63.08C250.661 62.472 250.301 61.792 250.061 61.04C249.821 60.288 249.701 59.528 249.701 58.76C249.701 57.928 249.861 57.104 250.181 56.288C250.517 55.472 250.981 54.728 251.573 54.056C252.165 53.368 252.861 52.824 253.661 52.424C254.477 52.008 255.365 51.8 256.325 51.8C257.141 51.8 257.837 51.944 258.413 52.232C258.989 52.504 259.429 52.888 259.733 53.384C260.037 53.88 260.189 54.472 260.189 55.16C260.189 55.88 260.021 56.536 259.685 57.128C259.365 57.704 258.909 58.184 258.317 58.568C257.565 59.08 256.749 59.448 255.868 59.672C255.005 59.896 254.085 60.04 253.109 60.104C253.253 60.472 253.445 60.832 253.685 61.184C253.925 61.52 254.229 61.8 254.597 62.024C254.981 62.232 255.429 62.336 255.941 62.336C256.517 62.336 257.045 62.192 257.525 61.904C258.005 61.6 258.429 61.248 258.797 60.848C258.957 60.672 259.101 60.56 259.229 60.512C259.373 60.448 259.501 60.416 259.613 60.416C259.821 60.416 260.021 60.488 260.213 60.632C260.421 60.76 260.597 60.928 260.741 61.136C260.901 61.328 260.997 61.536 261.029 61.76C261.061 61.952 261.037 62.144 260.957 62.336C260.877 62.512 260.781 62.656 260.669 62.768C260.077 63.408 259.349 63.952 258.485 64.4C257.637 64.832 256.701 65.048 255.677 65.048ZM252.965 57.704C253.477 57.672 253.917 57.632 254.285 57.584C254.653 57.52 255.069 57.392 255.533 57.2C255.965 57.024 256.341 56.768 256.661 56.432C256.981 56.096 257.141 55.696 257.141 55.232C257.141 55.056 257.101 54.896 257.021 54.752C256.941 54.592 256.813 54.464 256.637 54.368C256.477 54.272 256.269 54.224 256.013 54.224C255.629 54.224 255.261 54.336 254.909 54.56C254.573 54.784 254.269 55.072 253.997 55.424C253.725 55.776 253.501 56.152 253.325 56.552C253.149 56.952 253.029 57.336 252.965 57.704Z" fill="white"/>
</svg>
