<svg width="39" height="30" viewBox="0 0 39 30" fill="none" xmlns="http://www.w3.org/2000/svg">
<path d="M18.5275 7.67902L6.34455 17.7131V28.5427C6.34455 28.8231 6.45594 29.0921 6.65422 29.2903C6.85249 29.4886 7.12141 29.6 7.40182 29.6L14.8066 29.5808C15.0861 29.5794 15.3537 29.4674 15.5508 29.2693C15.7479 29.0712 15.8586 28.8031 15.8586 28.5236V22.1992C15.8586 21.9188 15.97 21.6499 16.1682 21.4516C16.3665 21.2533 16.6354 21.1419 16.9158 21.1419H21.1449C21.4253 21.1419 21.6942 21.2533 21.8925 21.4516C22.0908 21.6499 22.2021 21.9188 22.2021 22.1992V28.5189C22.2017 28.6581 22.2287 28.7959 22.2817 28.9246C22.3346 29.0532 22.4124 29.1702 22.5106 29.2687C22.6089 29.3672 22.7256 29.4454 22.854 29.4987C22.9825 29.5521 23.1203 29.5795 23.2594 29.5795L30.6616 29.6C30.942 29.6 31.2109 29.4886 31.4091 29.2903C31.6074 29.0921 31.7188 28.8231 31.7188 28.5427V17.7058L19.5385 7.67902C19.3953 7.56359 19.2169 7.50065 19.033 7.50065C18.8491 7.50065 18.6707 7.56359 18.5275 7.67902ZM37.7716 14.499L32.2474 9.94552V0.792946C32.2474 0.582643 32.1639 0.380955 32.0152 0.232249C31.8665 0.0835424 31.6648 0 31.4545 0H27.7541C27.5438 0 27.3421 0.0835424 27.1934 0.232249C27.0447 0.380955 26.9611 0.582643 26.9611 0.792946V5.59093L21.0451 0.723563C20.4774 0.256372 19.765 0.000933922 19.0297 0.000933922C18.2945 0.000933922 17.582 0.256372 17.0143 0.723563L0.287772 14.499C0.207478 14.5654 0.141048 14.6469 0.0922763 14.739C0.0435049 14.831 0.0133484 14.9318 0.00353003 15.0355C-0.00628836 15.1392 0.00442375 15.2438 0.0350543 15.3434C0.0656848 15.4429 0.115633 15.5355 0.182046 15.6157L1.86706 17.6642C1.93329 17.7447 2.01475 17.8114 2.10679 17.8604C2.19882 17.9094 2.29962 17.9398 2.40341 17.9498C2.5072 17.9598 2.61195 17.9492 2.71165 17.9187C2.81135 17.8882 2.90405 17.8383 2.98445 17.7719L18.5275 4.96979C18.6707 4.85436 18.8491 4.79142 19.033 4.79142C19.2169 4.79142 19.3953 4.85436 19.5385 4.96979L35.0822 17.7719C35.1625 17.8383 35.255 17.8883 35.3546 17.9189C35.4542 17.9495 35.5588 17.9602 35.6625 17.9504C35.7662 17.9406 35.867 17.9104 35.959 17.8617C36.0511 17.8129 36.1326 17.7465 36.199 17.6662L37.884 15.6177C37.9503 15.537 38 15.444 38.0303 15.344C38.0606 15.244 38.0708 15.139 38.0604 15.035C38.0499 14.9311 38.019 14.8302 37.9695 14.7382C37.9199 14.6462 37.8527 14.5649 37.7716 14.499Z" fill="black"/>
</svg>
